<?xml version="1.0" standalone="no"?>
<!DOCTYPE svg PUBLIC "-//W3C//DTD SVG 20010904//EN"
 "http://www.w3.org/TR/2001/REC-SVG-20010904/DTD/svg10.dtd">
<svg version="1.0" xmlns="http://www.w3.org/2000/svg"
 width="512.000000pt" height="512.000000pt" viewBox="0 0 512.000000 512.000000"
 preserveAspectRatio="xMidYMid meet">
<metadata>
Created by potrace 1.14, written by Peter Selinger 2001-2017
</metadata>
<g transform="translate(0.000000,512.000000) scale(0.100000,-0.100000)"
fill="#000000" stroke="none">
<path d="M2325 4319 c-170 -23 -382 -88 -504 -155 -270 -148 -436 -376 -487
-667 -22 -123 -14 -337 16 -457 86 -346 350 -575 795 -690 60 -16 218 -45 350
-65 335 -52 446 -86 542 -170 120 -103 154 -340 74 -510 -80 -172 -243 -259
-506 -272 -339 -17 -625 96 -874 344 -40 40 -75 73 -78 73 -7 0 -433 -413
-433 -420 0 -32 205 -215 348 -311 242 -162 474 -237 798 -259 400 -27 773 60
1024 238 331 236 485 675 390 1113 -65 300 -265 512 -609 644 -130 50 -249 79
-551 135 -305 57 -404 85 -490 141 -106 68 -151 159 -151 308 -1 47 3 100 7
116 23 96 112 197 212 242 196 86 546 78 760 -18 93 -42 197 -115 283 -200
l78 -76 218 205 c120 113 220 210 222 215 2 5 -41 52 -96 105 -104 102 -219
186 -342 247 -99 49 -284 110 -401 130 -112 20 -486 29 -595 14z"/>
</g>
</svg>
